<?xml version="1.0" encoding="UTF-8" standalone="no"?>
<svg
   xmlns:dc="http://purl.org/dc/elements/1.1/"
   xmlns:cc="http://creativecommons.org/ns#"
   xmlns:rdf="http://www.w3.org/1999/02/22-rdf-syntax-ns#"
   xmlns:svg="http://www.w3.org/2000/svg"
   xmlns="http://www.w3.org/2000/svg"
   xmlns:sodipodi="http://sodipodi.sourceforge.net/DTD/sodipodi-0.dtd"
   xmlns:inkscape="http://www.inkscape.org/namespaces/inkscape"
   style="fill: #FFFFFF"
   viewBox="0 0 210 100"
   version="1.1"
   id="svg8"
   inkscape:version="1.0.2-2 (e86c870879, 2021-01-15)"
   sodipodi:docname="logo.svg">
  <defs
     id="defs2" />
  <sodipodi:namedview
     id="base"
     pagecolor="current"
     borderopacity="1.0"
     inkscape:pageopacity="0.0"
     inkscape:pageshadow="2"
     inkscape:zoom="2.8"
     inkscape:cx="375.43032"
     inkscape:cy="77.267414"
     inkscape:document-units="mm"
     inkscape:current-layer="layer1"
     inkscape:document-rotation="0"
     showgrid="false"
     inkscape:window-width="1920"
     inkscape:window-height="1017"
     inkscape:window-x="-8"
     inkscape:window-y="-8"
     inkscape:window-maximized="1" />
  <metadata
     id="metadata5">
    <rdf:RDF>
      <cc:Work
         rdf:about="">
        <dc:format>image/svg+xml</dc:format>
        <dc:type
           rdf:resource="http://purl.org/dc/dcmitype/StillImage" />
        <dc:title />
      </cc:Work>
    </rdf:RDF>
  </metadata>
  <g
     inkscape:label="Layer 1"
     inkscape:groupmode="layer"
     id="layer1">
    <text
       xml:space="preserve"
       style="color: #FFFFFF; font-size:123.721px;line-height:1.25;font-family:'(A) Arslan Wessam A';-inkscape-font-specification:'(A) Arslan Wessam A';stroke-width:0.644381"
       x="-1.1639454"
       y="66.753761"
       id="text12"
       transform="scale(0.93213716,1.0728035)">
            <tspan
   id="tspan10"
   x="-1.1639454"
   y="66.753761"
   style="font-size:123.721px;stroke-width:0.644381; color: #FFFFFF"
   sodipodi:role="line">بيضاتي</tspan>
        </text>
    <path
       style="fill:none;stroke:#FFFFFF;stroke-width:0.264583px;stroke-linecap:butt;stroke-linejoin:miter;stroke-opacity:1"
       d="m 2.7802328,61.913243 c -1.5175539,0.38056 -1.3380249,0.81188 -2.078869,1.70089 -0.6193804,0.74326 -0.5669643,0.0592 -0.5669643,0.56697"
       id="path54" />
    <path
       style="fill:none;stroke:#FFFFFF;stroke-width:0.264583px;stroke-linecap:butt;stroke-linejoin:miter;stroke-opacity:1"
       d="m 2.9692207,67.204913 c -2.1711126,0.34203 -0.2713453,0.46033 -0.7559524,0.94494 -0.1836632,0.18366 -0.539836,0.0449 -0.7559521,0.18899 -0.1657536,0.1105 0.1889879,0.36775 0.1889879,0.56696 0,0.063 -0.1444432,-0.0445 -0.1889879,0 -0.040792,0.0408 -0.1889882,1.10471 -0.1889882,1.13393"
       id="path60" />
    <path
       style="fill:none;stroke:#FFFFFF;stroke-width:0.264583px;stroke-linecap:butt;stroke-linejoin:miter;stroke-opacity:1"
       d="m 7.5049354,70.417713 c -0.188988,0.31498 -0.402691,0.61639 -0.566965,0.94494 -0.137051,0.2741 -0.26207,1.96296 -0.377976,2.07887 -0.04454,0.0445 -0.125992,0 -0.188988,0 -0.125992,0.063 -0.278371,0.0894 -0.377976,0.18898 -0.1185953,0.1186 0.03869,1.01786 0,1.13393 -0.01344,0.0403 -0.6981489,0.13119 -0.7559524,0.18899 -0.4999771,0.49998 -0.074509,0.37798 0.1889881,0.37798"
       id="path62" />
    <path
       style="fill:none;stroke:#FFFFFF;stroke-width:0.264583px;stroke-linecap:butt;stroke-linejoin:miter;stroke-opacity:1"
       d="m 12.796601,74.575453 c -0.343847,0.67509 -0.755952,1.90418 -0.755952,2.64583 0,0.19921 0.188988,0.36775 0.188988,0.56696 0,0.0891 -0.149146,0.10931 -0.188988,0.18899 -0.0906,0.1812 0,0.54644 0,0.75595"
       id="path64" />
    <path
       style="fill:#FFFFFF;fill-opacity:1;fill-rule:nonzero;stroke:none;stroke-width:0.264583"
       id="path145"
       d="m 18.118987,71.429793 c -0.135109,-0.45383 -0.09502,-0.93696 -0.06166,-1.40248 0.01287,-0.12194 0.02049,-0.24455 0.03861,-0.36582 0.04594,-0.30742 0.113846,-0.56776 0.186844,-0.87114 0.02693,-0.11194 0.220975,-0.91087 0.249003,-1.01217 0.0467,-0.16879 0.102317,-0.33498 0.153475,-0.50247 0.05069,-0.16516 0.100801,-0.3305 0.152063,-0.49549 0.157576,-0.50715 0.14528,-0.43908 0.282136,-0.94436 0.112729,-0.4162 0.120163,-0.50599 0.255522,-0.91407 0.05062,-0.15262 0.109702,-0.30231 0.164553,-0.45346 0.337717,-0.91726 0.753981,-1.80087 1.223171,-2.6574 0.152921,-0.32668 0.35252,-0.62794 0.526978,-0.94259 0.04864,-0.0877 0.09028,-0.1792 0.13779,-0.26755 0.496437,-0.92314 -0.208723,0.41656 0.274218,-0.50508 0.0425,-0.0873 0.08665,-0.17392 0.127506,-0.26206 0.04119,-0.0889 0.07589,-0.18068 0.118585,-0.26882 0.148295,-0.3061 0.319565,-0.59782 0.455188,-0.91037 0.278045,-0.37537 0.519228,-0.77622 0.784052,-1.16079 0.260462,-0.425 0.570979,-0.81423 0.877137,-1.20613 0.329438,-0.4217 0.07029,-0.11108 0.392136,-0.48631 0.05355,-0.0625 0.104468,-0.12744 0.160644,-0.18763 0.227169,-0.24342 0.07788,-0.0486 0.284745,-0.29131 0.04902,-0.0575 0.09257,-0.11955 0.141139,-0.17746 0.125955,-0.15015 0.258099,-0.295 0.386657,-0.44293 0.559326,-0.63546 1.132374,-1.25816 1.710058,-1.87685 0.09139,-0.0902 0.182866,-0.18026 0.274163,-0.27052 0.175538,-0.17356 0.277974,-0.28362 0.465082,-0.43995 0.265478,-0.22181 0.558406,-0.40684 0.8469,-0.59637 0.124259,-0.0792 0.247409,-0.16021 0.372777,-0.23766 0.142541,-0.0881 0.286549,-0.17375 0.430882,-0.25885 0.164089,-0.0968 0.659116,-0.38229 0.494355,-0.28668 -2.649519,1.53741 -0.722302,0.42727 -0.153649,0.10794 0.153038,-0.0865 0.3067,-0.17198 0.459113,-0.25961 4.031591,-2.31809 2.078313,-1.20686 0.759457,-0.43317 -0.118181,0.0693 0.23871,-0.13458 0.35845,-0.20118 0.421108,-0.23423 0.365921,-0.20204 0.812355,-0.43934 1.187702,-0.5795 2.449852,-0.98148 3.696529,-1.41109 0.727374,-0.24818 1.459872,-0.48476 2.209842,-0.65593 0.471191,-0.10753 0.641715,-0.12836 1.12331,-0.20852 1.596771,-0.22212 3.212613,-0.24615 4.821893,-0.22628 1.693683,0.042 3.384272,0.18522 5.063559,0.4068 0.547089,0.0821 1.098404,0.15496 1.635961,0.28964 0.252296,0.0632 0.37157,0.10924 0.616553,0.19244 0.352568,0.12753 0.183719,0.0639 0.506915,0.19007 0,0 1.818349,-1.22418 1.818349,-1.22418 v 0 c -0.339047,-0.12144 -0.163158,-0.0602 -0.527907,-0.18294 -0.159888,-0.0556 -0.47489,-0.16857 -0.636736,-0.21063 -0.564718,-0.14677 -1.151903,-0.18426 -1.72916,-0.24857 -1.712182,-0.17044 -3.428349,-0.31398 -5.148519,-0.36995 -1.583227,-0.0381 -3.173974,-0.0504 -4.749919,0.12936 -0.443415,0.0653 -0.689922,0.0941 -1.125911,0.18775 -0.76591,0.16447 -1.511832,0.40723 -2.25103,0.66347 -1.23014,0.43092 -2.476815,0.82219 -3.669964,1.35094 -0.421489,0.21598 -0.399473,0.20059 -0.799073,0.42056 -1.159965,0.63855 -4.433469,2.54363 -1.149239,0.65751 0.15812,-0.0908 -0.316021,0.182 -0.47403,0.273 -1.5978,0.9059 -3.212656,1.78547 -4.765344,2.76739 -0.242443,0.16293 -0.394716,0.25796 -0.620276,0.43591 -0.344345,0.27166 -0.63549,0.60062 -0.939274,0.91493 -0.579093,0.62972 -1.158621,1.25903 -1.734391,1.8918 -0.332912,0.36594 -0.670504,0.72908 -0.982573,1.11293 -0.433615,0.555 -0.856112,1.11916 -1.250135,1.70314 -0.277647,0.39762 -0.574666,0.78678 -0.802448,1.21577 -0.210655,0.48029 -0.459293,0.94323 -0.685594,1.41612 -0.300324,0.56397 -0.608973,1.12355 -0.895258,1.69484 -0.44928,0.86969 -0.855249,1.76101 -1.196118,2.6792 -0.05458,0.15545 -0.113511,0.30943 -0.163747,0.46634 -0.09978,0.31165 -0.167151,0.60016 -0.252736,0.91572 -0.137423,0.50671 -0.118071,0.42245 -0.273113,0.93514 -0.04988,0.16495 -0.09912,0.33008 -0.148677,0.49512 -0.197401,0.68008 -0.104081,0.33945 -0.281892,1.02922 -0.152471,0.59147 -0.325184,1.18178 -0.385467,1.79193 -0.0422,0.50199 -0.06361,1.01113 0.03479,1.50859 0,0 1.970388,-1.07741 1.970388,-1.07741 z" />
    <path
       style="fill:none;stroke:#FFFFFF;stroke-width:0.264583px;stroke-linecap:butt;stroke-linejoin:miter;stroke-opacity:1"
       d="m 15.300693,77.504763 c -0.04725,0.063 -0.08606,0.13331 -0.141741,0.18899 -0.760215,0.76021 1.202355,1.6934 0.661459,2.12611 -0.02717,0.0217 -0.269726,0.064 -0.330729,0.0945"
       id="path149" />
    <path
       style="fill:none;stroke:#FFFFFF;stroke-width:0.264583px;stroke-linecap:butt;stroke-linejoin:miter;stroke-opacity:1"
       d="m 15.300693,77.504763 c -0.04725,0.063 -0.08606,0.13331 -0.141741,0.18899 -0.760215,0.76021 1.202355,1.6934 0.661459,2.12611 -0.02717,0.0217 -0.269726,0.064 -0.330729,0.0945"
       id="path151" />
    <path
       style="fill:none;stroke:#FFFFFF;stroke-width:0.264583px;stroke-linecap:butt;stroke-linejoin:miter;stroke-opacity:1"
       d="m 20.403372,78.166223 c 0,0.15749 0.0087,0.31522 0,0.47247 -0.01314,0.23648 -0.25841,1.02979 -0.09449,1.27567 0.270304,0.40545 0.639053,0.47003 0.425223,0.89769"
       id="path153" />
    <path
       style="fill:none;stroke:#FFFFFF;stroke-width:0.264583px;stroke-linecap:butt;stroke-linejoin:miter;stroke-opacity:1"
       d="m 26.450991,78.827683 c -0.249489,0.56304 0.519718,0.77787 0.519718,1.18117 0,0.19838 -0.168,0.68245 0,0.85045 0.309488,0.30949 0.377976,0.16835 0.377976,0.47247"
       id="path155" />
    <path
       style="fill:none;stroke:#FFFFFF;stroke-width:0.264583px;stroke-linecap:butt;stroke-linejoin:miter;stroke-opacity:1"
       d="m 32.498609,78.780433 c 0.275804,0.1635 0.02177,0.42025 0.0945,0.61421 0.0945,0.252 0.160163,0.1252 0.283482,0.33073 0.237715,0.39619 -0.0074,0.74859 0.377976,1.13393 0.02119,0.0212 -0.02352,0.1241 0,0.14174 0.0011,7.9e-4 0.31677,0.0805 0.330729,0.0945 0.113517,0.11352 -0.120676,0.29402 0.04725,0.37798"
       id="path157" />
    <path
       style="fill:none;stroke:#FFFFFF;stroke-width:0.264583px;stroke-linecap:butt;stroke-linejoin:miter;stroke-opacity:1"
       d="m 36.089383,78.544203 c 0.172789,0.35489 0.475038,0.65041 0.661458,0.99218 0.103212,0.18922 0.05928,0.6443 0.141743,0.85045 0.135731,0.33933 1.476534,0.80716 1.748139,0.89769 0.102293,0.0341 -0.04725,0.0596 -0.04725,0.14174 0,0.17412 0.04364,0.18538 0.14174,0.28348"
       id="path159" />
    <path
       style="fill:none;stroke:#FFFFFF;stroke-width:0.264583px;stroke-linecap:butt;stroke-linejoin:miter;stroke-opacity:1"
       d="m 44.593848,76.937803 c 0.468429,0.60288 1.184383,1.16804 1.559152,1.84263 0.105357,0.18965 -0.0945,0.67465 -0.0945,0.8032 0,0.0397 0.179272,0.28834 0.0945,0.33073 -0.102549,0.0513 -0.433279,0.0432 -0.330729,0.0945 0.195623,0.0978 0.638157,-0.12556 0.803199,0.0945 0.351954,0.46927 -0.35835,0.83663 0.236235,1.13393"
       id="path161" />
    <path
       style="fill:none;stroke:#FFFFFF;stroke-width:0.264583px;stroke-linecap:butt;stroke-linejoin:miter;stroke-opacity:1"
       d="m 49.365796,73.961233 c 0.479531,0.35377 2.376768,1.25431 2.126118,2.17337 -0.04878,0.17887 -0.616395,0.73656 -0.519719,0.89769 0.231151,0.38525 0.901851,0.1973 1.086681,0.56696 0.04521,0.0904 -0.308819,0.24309 -0.330729,0.33073 -0.04804,0.19218 0.35846,0.31943 0.377978,0.37798 0.09281,0.27843 -0.198567,0.47247 0.04725,0.47247"
       id="path163" />
    <path
       style="fill:none;stroke:#FFFFFF;stroke-width:0.264583px;stroke-linecap:butt;stroke-linejoin:miter;stroke-opacity:1"
       d="m 55.50791,71.929613 c 0,0.75525 -0.06107,0.57736 0.236236,1.37017 0.236442,0.63051 0.565851,1.36682 0.755952,1.93712 0.08569,0.25708 0.06617,0.60481 0.188986,0.85045 0.134266,0.26853 0.534276,-0.0994 0.661459,-0.14174 0.06682,-0.0223 0.05356,0.13167 0.0945,0.18899 0.291301,0.40782 0.0046,1.04397 -0.141743,0.89769 -0.184893,-0.18489 0.794597,-1.15974 1.181177,0"
       id="path165" />
    <path
       style="fill:none;stroke:#FFFFFF;stroke-width:0.264583px;stroke-linecap:butt;stroke-linejoin:miter;stroke-opacity:1"
       d="m 60.090872,70.653943 c 0.381809,0.38049 1.227328,0.21903 1.55915,0.66146 0.30721,0.40961 -0.03694,0.93357 -0.188987,1.27567 -0.03198,0.072 -0.218956,0.17354 -0.141742,0.18899 0.352827,0.0706 0.614211,-0.36173 0.614211,0.18899 0,0.2012 -0.05317,1.08431 0.188989,1.18117 0.264854,0.10594 0.997736,-0.14174 1.322917,-0.14174"
       id="path167" />
    <path
       style="fill:none;stroke:#FFFFFF;stroke-width:0.264583px;stroke-linecap:butt;stroke-linejoin:miter;stroke-opacity:1"
       d="m 64.012375,69.331033 c 0.737791,-0.17567 1.372222,0.34893 1.653646,0.99218 0.02524,0.0577 -0.02817,0.13264 0,0.18899 0.05902,0.11804 0.639141,-0.0862 0.755952,-0.0472 0.188838,0.063 0.112162,0.37798 0.283482,0.37798"
       id="path169" />
    <path
       style="fill:none;stroke:#FFFFFF;stroke-width:0.264583px;stroke-linecap:butt;stroke-linejoin:miter;stroke-opacity:1"
       d="m 66.28023,67.630133 c 0.261297,0.2635 0.448432,0.63742 0.708708,0.89769 0.328432,0.32844 1.01147,-0.0186 1.181174,0.0945 0.236381,0.15759 0.30372,0.43323 0.566965,0.61421 0.326459,0.22444 0.706339,0.36711 1.039434,0.56696"
       id="path171" />
    <path
       style="fill:#FFFFFF;stroke-width:0.357143"
       d="m 323.29378,79.763603 c -9.89836,-1.868543 -16.83227,-6.881518 -18.93499,-13.689336 -3.1286,-10.129234 3.37633,-19.728952 16.97283,-25.04783 7.3456,-2.873558 13.02465,-3.947559 20.8737,-3.947559 4.95605,0 6.57001,0.301403 6.95259,1.298375 0.5709,1.487753 -0.81595,2.143228 -5.97404,2.823545 -9.79673,1.292121 -19.43372,4.488961 -25.81059,8.56204 -5.82004,3.717411 -8.85536,9.767947 -7.14583,14.244301 1.35876,3.55785 7.04592,7.102121 13.63532,8.497607 4.68754,0.992714 13.3421,1.056968 18.54028,0.13765 10.25334,-1.813343 20.85466,-7.063104 25.10495,-12.431943 2.08461,-2.633225 1.45683,-3.175157 -4.80675,-4.149433 -5.66173,-0.880659 -9.0482,-2.9947 -9.0482,-5.648428 0,-2.421974 0.99107,-3.694895 3.74545,-4.810622 4.58846,-1.858667 6.45517,-4.091323 6.08098,-7.273092 -0.1155,-0.982142 -1.09999,-4.400798 -2.18775,-7.597012 -2.07814,-6.106259 -2.19759,-7.257547 -0.87702,-8.452649 0.35736,-0.323407 1.20089,-0.677451 1.87451,-0.786765 3.27401,-0.531299 5.58892,4.980571 6.2355,14.846954 0.36582,5.5821 -0.514,9.270327 -2.78221,11.663169 l -1.04485,1.102268 3.12715,0.614433 c 3.82172,0.750902 5.13726,1.349371 6.58122,2.993949 1.09579,1.248045 1.11198,1.320673 0.96598,4.335339 -0.12754,2.633682 -0.31749,3.382479 -1.34702,5.310171 -3.00478,5.626147 -11.92804,11.877375 -21.44337,15.022236 -6.4717,2.138929 -9.71405,2.625604 -18.39286,2.760757 -6.05256,0.09426 -8.91975,-0.0053 -10.89498,-0.378125 z"
       id="path63" />
    <path
       style="fill:#FFFFFF;stroke-width:0.357143"
       d="m 328.84345,100.24678 c -2.89395,-0.677723 -3.8859,-2.877287 -1.94726,-4.317909 0.50694,-0.376713 2.43551,-1.060756 4.28571,-1.520095 1.8502,-0.459339 4.87833,-1.492906 6.72917,-2.296815 1.85083,-0.80391 3.87192,-1.461654 4.49131,-1.461654 1.63692,0 2.73992,1.326015 2.9537,3.550901 0.15944,1.659291 0.0848,1.875327 -1.03344,2.990416 -2.47233,2.465386 -10.89712,4.128206 -15.47919,3.055156 z"
       id="path65" />
    <path
       style="fill:#FFFFFF;stroke-width:0.357143"
       d="m 345.80325,18.823151 c -1.4193,-0.566283 -2.1502,-1.4226 -2.1502,-2.51916 0,-1.244895 1.38904,-2.200463 4.07716,-2.804827 2.9636,-0.666296 5.19439,-1.421051 8.67291,-2.934342 2.30429,-1.002454 3.55486,-1.3619152 4.18655,-1.2033715 2.13297,0.5353409 3.20843,3.3241545 2.20658,5.7219265 -0.65006,1.555804 -2.99433,2.785304 -6.88078,3.60876 -2.76371,0.585573 -8.77765,0.66349 -10.11222,0.131014 z"
       id="path67" />
    <path
       style="fill:#FFFFFF;stroke-width:0.357143"
       d="m 443.29591,70.447 c -0.49108,-0.08628 -2.66072,-0.402118 -4.82143,-0.701868 -7.36319,-1.021475 -8.63299,-1.281654 -10.5185,-2.155225 -2.55055,-1.181686 -4.40293,-2.7078 -5.61454,-4.625625 -0.9976,-1.579061 -1.03377,-1.598422 -2.98836,-1.59905 -2.22661,-7.14e-4 -5.75619,-0.820747 -6.85978,-1.593732 -0.68372,-0.478897 -0.94702,-0.309565 -4.05663,2.608907 -5.461,5.125332 -9.32369,6.981468 -14.42648,6.932353 -4.43207,-0.04266 -7.48964,-1.582885 -8.89168,-4.479103 -0.62639,-1.293943 -0.83941,-2.875632 -1.28802,-9.563282 -0.71047,-10.59128 -1.05441,-14.719686 -2.18808,-26.263505 -0.52279,-5.323533 -0.8373,-10.130328 -0.6989,-10.681766 0.1384,-0.551438 0.79866,-1.54963 1.46723,-2.218204 1.01477,-1.014769 1.43319,-1.197146 2.53276,-1.103948 2.52227,0.213784 2.39114,-0.500131 4.34359,23.648616 1.59874,19.773835 1.82032,21.797771 2.43729,22.262842 0.93612,0.70565 5.60487,0.433643 7.28581,-0.424478 2.42002,-1.235422 5.0511,-3.55035 8.49002,-7.469857 5.017,-5.718111 5.979,-6.655482 6.83035,-6.655482 0.41885,0 1.36187,0.55015 2.09559,1.222557 1.19782,1.097717 1.33404,1.403878 1.33404,2.998218 0,1.225596 -0.20439,2.001514 -0.6598,2.504732 -0.65102,0.719371 -0.64275,0.732268 0.62231,0.969596 1.94143,0.364211 2.35892,0.0587 2.35892,-1.726214 0,-3.307908 2.0523,-8.043538 5.44891,-12.573193 2.64874,-3.532312 11.47376,-12.501397 13.97184,-14.199916 1.15463,-0.785066 3.32427,-2.010102 4.82143,-2.722301 2.53637,-1.206553 2.95361,-1.294908 6.11496,-1.294908 4.12888,0 6.20061,0.694361 7.9938,2.679198 5.47622,6.061531 -0.81249,16.861171 -16.00322,27.48237 -3.51354,2.456636 -8.73653,5.550811 -11.47438,6.797586 l -1.7662,0.804296 1.85933,0.866929 c 1.23918,0.577778 2.96642,0.975142 5.17857,1.191375 1.82559,0.178446 4.12282,0.500507 5.10496,0.715689 2.30787,0.505643 11.61754,0.511486 13.92857,0.0087 0.98214,-0.213657 2.952,-0.536811 4.37747,-0.718118 4.20562,-0.534918 6.80196,-1.993807 10.89451,-6.121636 3.50541,-3.535643 4.5159,-4.150132 6.1501,-3.739975 1.49306,0.374736 2.06398,2.010715 1.77561,5.088057 -0.2299,2.453336 -0.18626,2.73074 0.55336,3.518033 1.28604,1.368932 2.46764,1.417742 5.87651,0.242757 3.65713,-1.260557 6.7638,-3.060643 7.81551,-4.528497 0.64099,-0.894625 0.75349,-1.499085 0.68533,-3.682028 -0.0748,-2.396452 -0.28568,-3.443255 -1.57652,-7.826656 -0.37999,-1.290361 -0.35848,-1.686858 0.14932,-2.751718 1.06128,-2.225541 3.93618,-2.944983 5.3764,-1.345447 1.65663,1.839869 3.28019,9.171638 3.02058,13.640471 -0.27613,4.753146 -2.32879,8.012785 -6.96061,11.053532 -1.49848,0.983735 -3.86209,2.212793 -5.25247,2.731235 -1.39037,0.518443 -2.8902,1.111818 -3.33295,1.318611 -0.87147,0.407036 -4.24345,0.607889 -5.99687,0.357204 -1.09435,-0.156461 -5.02696,-3.48395 -5.78159,-4.891954 -0.34201,-0.63815 -0.52594,-0.574496 -2.89941,1.003379 -3.28343,2.182821 -6.26633,3.375725 -9.43649,3.773785 -1.40179,0.176015 -2.63625,0.267233 -2.74325,0.202704 -0.107,-0.06453 -1.31954,0.103907 -2.69454,0.374304 -2.57798,0.50696 -10.38368,0.9373 -11.96428,0.659607 z M 430.61733,50.203174 c 2.9427,-1.467008 7.33064,-4.362716 10.53572,-6.952773 3.0269,-2.446069 10.24767,-9.624635 10.94458,-10.880618 1.18162,-2.129504 0.0112,-3.515776 -3.02695,-3.584978 -1.44966,-0.03302 -2.17674,0.191963 -3.81411,1.180209 -3.82636,2.309435 -10.74288,8.938826 -14.76737,14.154332 -1.48913,1.929819 -3.62187,6.015339 -3.62187,6.938122 0,0.86001 0.57316,0.729439 3.75,-0.854294 z"
       id="path69" />
    <path
       style="fill:#FFFFFF;stroke-width:0.357143"
       d="m 464.37468,92.037437 c -1.41467,-0.564435 -2.1502,-1.421569 -2.1502,-2.505679 0,-1.382387 1.05565,-1.993181 5.4572,-3.157514 2.00747,-0.531031 5.22878,-1.642915 7.15848,-2.470853 3.08495,-1.323601 3.64583,-1.460031 4.64572,-1.130038 1.96926,0.649914 2.85392,3.197703 1.90167,5.47675 -0.64895,1.55316 -2.33672,2.502149 -6.21339,3.493635 -2.95344,0.755362 -9.21556,0.925664 -10.79948,0.293699 z"
       id="path71" />
    <path
       style="fill:#FFFFFF;stroke-width:0.357143"
       d="m 493.40464,85.308908 c -0.76722,-0.467805 -1.28107,-1.162527 -1.56785,-2.119727 -0.40001,-1.335113 -0.34408,-1.597633 0.89748,-4.211993 2.02738,-4.269086 3.16188,-5.170826 5.35347,-4.25512 2.71174,1.133036 3.05872,3.58417 1.04883,7.409 -1.99913,3.804364 -3.41605,4.589918 -5.73193,3.17784 z"
       id="path73" />
    <path
       style="fill:#FFFFFF;stroke-width:0.357143"
       d="m 421.33162,11.447097 c -1.15806,-0.246368 -2.6522,-1.9001477 -2.89735,-3.2069102 -0.18383,-0.979914 0.0388,-1.7324036 1.15627,-3.908205 1.77869,-3.46323302 2.64462,-4.39596034 4.08117,-4.39596034 0.81011,0 1.4759,0.35170822 2.38307,1.25887224 1.16298,1.1629823 1.2456,1.3874155 1.08464,2.9464285 -0.23843,2.3093432 -2.66494,6.5278688 -4.0627,7.0630478 -0.56695,0.217077 -1.35224,0.326305 -1.7451,0.242727 z"
       id="path75" />
  </g>
</svg>
